<?xml version="1.0"?>
<svg xmlns="http://www.w3.org/2000/svg" xmlns:xlink="http://www.w3.org/1999/xlink" version="1.1" id="Capa_1" x="0px" y="0px" viewBox="0 0 496 496" style="enable-background:new 0 0 496 496;" xml:space="preserve" width="512px" height="512px" class=""><g><g>
	<g>
		<path d="M160,0v232h-8h-18.584c-2.984,0-5.416-2.432-5.416-5.416c0-0.456,0.056-0.904,0.168-1.352    C138.528,209.96,144,192.16,144,173.68V144c0-13.232-10.768-24-24-24s-24,10.768-24,24c0,23.664-9.208,45.904-25.936,62.632    L51.72,224.976C47.184,229.504,41.16,232,34.744,232H16v-8v-8H0v8v136v8h16v-8v-8h21.336c5.16,0,10.272,1.704,14.4,4.8L66.664,368    c6.872,5.16,15.4,8,24,8H152h8v120h251.312L496,411.312V0H160z M152,248h56c4.416,0,8,3.592,8,8c0,4.416-3.584,8-8,8h-56    c-4.416,0-8-3.584-8-8C144,251.592,147.584,248,152,248z M152,280h56c4.416,0,8,3.584,8,8c0,4.416-3.584,8-8,8h-56    c-4.416,0-8-3.584-8-8C144,283.584,147.584,280,152,280z M152,312h56c4.416,0,8,3.584,8,8c0,4.416-3.584,8-8,8h-56    c-4.416,0-8-3.584-8-8C144,315.584,147.584,312,152,312z M134.24,304c-3.84,4.256-6.24,9.832-6.24,16    c0,6.168,2.408,11.744,6.24,16c-3.84,4.256-6.24,9.832-6.24,16c0,2.816,0.576,5.488,1.472,8H90.664c-5.16,0-10.272-1.704-14.4-4.8    L61.336,344c-6.872-5.16-15.4-8-24-8H16v-88h18.744c10.688,0,20.736-4.16,28.288-11.712l18.344-18.344    C101.128,198.192,112,171.936,112,144c0-4.408,3.584-8,8-8s8,3.592,8,8v29.68c0,15.576-4.704,30.568-13.6,43.352l-0.864,1.608    c-1.024,2.544-1.536,5.216-1.536,7.944c0,10.504,7.608,19.216,17.592,21.032C128.608,250.232,128,253.04,128,256    c0,6.168,2.408,11.744,6.24,16c-3.84,4.256-6.24,9.832-6.24,16C128,294.168,130.408,299.744,134.24,304z M152,360    c-4.416,0-8-3.584-8-8c0-4.416,3.584-8,8-8h56c4.416,0,8,3.584,8,8c0,4.416-3.584,8-8,8h-16H152z M416,468.688V416h52.688    L416,468.688z M480,400h-80v80H176V376h16h16c13.232,0,24-10.768,24-24c0-6.168-2.408-11.744-6.24-16    c3.84-4.256,6.24-9.832,6.24-16c0-6.168-2.408-11.744-6.24-16c3.84-4.256,6.24-9.832,6.24-16c0-6.168-2.408-11.744-6.24-16    c3.84-4.256,6.24-9.832,6.24-16c0-13.232-10.768-24-24-24h-32V16h304V400z" data-original="#000000" class="active-path" data-old_color="#000000" fill="#B0242E"/>
	</g>
</g><g>
	<g>
		<path d="M346.344,178.344L324.688,200H248v80h80v-60.688l29.656-29.656L346.344,178.344z M312,264h-48v-48h44.688L288,236.688    l-10.344-10.344l-11.312,11.312L288,259.312l24-24V264z" data-original="#000000" class="active-path" data-old_color="#000000" fill="#B0242E"/>
	</g>
</g><g>
	<g>
		<path d="M248,304v80h80v-80H248z M312,368h-48v-48h48V368z" data-original="#000000" class="active-path" data-old_color="#000000" fill="#B0242E"/>
	</g>
</g><g>
	<g>
		<rect x="368" y="200" width="96" height="16" data-original="#000000" class="active-path" data-old_color="#000000" fill="#B0242E"/>
	</g>
</g><g>
	<g>
		<rect x="368" y="264" width="96" height="16" data-original="#000000" class="active-path" data-old_color="#000000" fill="#B0242E"/>
	</g>
</g><g>
	<g>
		<rect x="368" y="232" width="40" height="16" data-original="#000000" class="active-path" data-old_color="#000000" fill="#B0242E"/>
	</g>
</g><g>
	<g>
		<rect x="424" y="232" width="40" height="16" data-original="#000000" class="active-path" data-old_color="#000000" fill="#B0242E"/>
	</g>
</g><g>
	<g>
		<rect x="368" y="304" width="96" height="16" data-original="#000000" class="active-path" data-old_color="#000000" fill="#B0242E"/>
	</g>
</g><g>
	<g>
		<rect x="368" y="368" width="96" height="16" data-original="#000000" class="active-path" data-old_color="#000000" fill="#B0242E"/>
	</g>
</g><g>
	<g>
		<rect x="368" y="336" width="40" height="16" data-original="#000000" class="active-path" data-old_color="#000000" fill="#B0242E"/>
	</g>
</g><g>
	<g>
		<rect x="424" y="336" width="40" height="16" data-original="#000000" class="active-path" data-old_color="#000000" fill="#B0242E"/>
	</g>
</g><g>
	<g>
		<path d="M262.88,45.672L248,27.28l-14.872,18.384l-20.592,8.92l11.624,19.848l1.72,23.672L248,92.48l22.128,5.632l1.72-23.672    l11.624-19.848L262.88,45.672z M256.16,69.56l-0.608,8.328L248,75.968l-7.544,1.92l-0.616-8.328l-4.376-7.48l7.624-3.304    L248,52.72l4.904,6.064l7.624,3.304L256.16,69.56z" data-original="#000000" class="active-path" data-old_color="#000000" fill="#B0242E"/>
	</g>
</g><g>
	<g>
		<path d="M342.88,45.672L328,27.28l-14.872,18.384l-20.592,8.92l11.624,19.848l1.712,23.68L328,92.48l22.128,5.632l1.72-23.672    l11.624-19.848L342.88,45.672z M336.16,69.56l-0.608,8.328L328,75.968l-7.544,1.92l-0.616-8.328l-4.376-7.48l7.632-3.296    L328,52.72l4.904,6.064l7.624,3.304L336.16,69.56z" data-original="#000000" class="active-path" data-old_color="#000000" fill="#B0242E"/>
	</g>
</g><g>
	<g>
		<path d="M302.88,109.672L288,91.28l-14.872,18.384l-20.6,8.92l11.624,19.848l1.72,23.672L288,156.48l22.128,5.632l1.72-23.672    l11.624-19.848L302.88,109.672z M296.152,133.568l-0.608,8.328L288,139.968l-7.544,1.92l-0.608-8.328l-4.376-7.48l7.624-3.296    L288,116.72l4.904,6.064l7.624,3.304L296.152,133.568z" data-original="#000000" class="active-path" data-old_color="#000000" fill="#B0242E"/>
	</g>
</g><g>
	<g>
		<path d="M382.88,109.672L368,91.28l-14.872,18.384l-20.6,8.92l11.624,19.848l1.72,23.672L368,156.48l22.128,5.632l1.72-23.672    l11.624-19.848L382.88,109.672z M376.152,133.568l-0.608,8.328L368,139.968l-7.544,1.92l-0.608-8.328l-4.376-7.48l7.624-3.296    L368,116.72l4.904,6.064l7.624,3.304L376.152,133.568z" data-original="#000000" class="active-path" data-old_color="#000000" fill="#B0242E"/>
	</g>
</g><g>
	<g>
		<path d="M422.88,45.672L408,27.28l-14.872,18.384l-20.592,8.92l11.624,19.848l1.712,23.68L408,92.48l22.128,5.632l1.72-23.672    l11.624-19.848L422.88,45.672z M416.16,69.56l-0.608,8.328L408,75.968l-7.544,1.92l-0.616-8.328l-4.376-7.48l7.632-3.296    L408,52.72l4.904,6.064l7.624,3.304L416.16,69.56z" data-original="#000000" class="active-path" data-old_color="#000000" fill="#B0242E"/>
	</g>
</g></g> </svg>
